<svg xmlns="http://www.w3.org/2000/svg" width="32" height="32" viewBox="0 0 32 32" fill="none">
  <g clip-path="url(#clip0_171_5737)">
    <path d="M29.0844 5.74523C29.0507 6.43871 28.7428 7.09038 28.2285 7.55687H28.2327C24.9536 10.5302 22.6964 13.0178 20.8244 15.941C18.9441 18.8725 17.382 22.3609 15.6231 27.4157C15.4768 27.8385 15.2246 28.2167 14.8905 28.5142C14.5564 28.8118 14.1516 29.0188 13.7148 29.1154C13.278 29.212 12.8237 29.195 12.3953 29.0661C11.9669 28.9371 11.5787 28.7005 11.2677 28.3789L3.65002 20.5267C3.16687 20.028 2.90161 19.3578 2.91261 18.6635C2.9236 17.9692 3.20995 17.3077 3.70865 16.8246C4.20734 16.3414 4.87755 16.0762 5.57182 16.0872C6.26609 16.0982 6.92756 16.3845 7.41071 16.8832L12.1346 21.7495C13.458 18.3909 14.8106 15.6227 16.4188 13.1142C18.6174 9.67174 21.2348 6.83656 24.7107 3.67892C25.225 3.21243 25.9035 2.96933 26.597 3.0031C27.2905 3.03687 27.9421 3.34475 28.4086 3.85899C28.8751 4.37324 29.1182 5.05174 29.0844 5.74523Z" fill="white"/>
  </g>
  <defs>
    <clipPath id="clip0_171_5737">
      <rect width="32" height="32" fill="white"/>
    </clipPath>
  </defs>
</svg>