<svg xmlns="http://www.w3.org/2000/svg" width="32" height="32" viewBox="0 0 32 32" fill="none">
  <g clip-path="url(#clip0_223_269)">
    <path fill-rule="evenodd" clip-rule="evenodd" d="M27.5725 1.60232C25.3531 0.338319 22.6034 0.962319 20.8708 2.5806L19.7371 3.64118L19.7325 3.64346C18.7657 4.54632 17.7851 5.4606 16.7977 6.39089C16.5816 6.5937 16.2963 6.70658 16 6.70658C15.7036 6.70658 15.4184 6.5937 15.2023 6.39089C14.2148 5.4606 13.232 4.54403 12.2674 3.64346L12.2651 3.64118L12.2605 3.6366L11.1291 2.5806C9.39426 0.960033 6.64683 0.340604 4.4274 1.60003C3.83515 1.92646 3.28933 2.33083 2.80454 2.80232C2.33276 3.28686 1.92836 3.83271 1.60226 4.42518C0.338258 6.6446 0.962258 9.39432 2.58054 11.1269C2.93254 11.504 3.28911 11.8812 3.6434 12.2652C4.54626 13.2297 5.46054 14.2103 6.39083 15.2C6.59364 15.4161 6.70652 15.7014 6.70652 15.9977C6.70652 16.2941 6.59364 16.5794 6.39083 16.7955C5.46054 17.7829 4.54626 18.7635 3.64569 19.7303H3.64111C3.28683 20.1143 2.93254 20.4937 2.58054 20.8686C0.959972 22.6057 0.340543 25.3532 1.59997 27.5726C1.91769 28.1303 2.30397 28.6949 2.80226 29.1955C3.30283 29.6937 3.86511 30.08 4.42511 30.3977C6.64454 31.6617 9.39426 31.0377 11.1268 29.4195L12.2651 28.3543C13.232 27.4537 14.2125 26.5395 15.2 25.6092C15.4161 25.4064 15.7013 25.2935 15.9977 25.2935C16.2941 25.2935 16.5793 25.4064 16.7954 25.6092C17.7828 26.5395 18.7657 27.4537 19.7303 28.3566L19.7348 28.3612L20.8685 29.4195C22.6011 31.0377 25.3508 31.6595 27.5703 30.3977C28.128 30.08 28.6925 29.6937 29.1931 29.1955C29.6914 28.6949 30.0777 28.1303 30.3954 27.5726C31.6594 25.3532 31.0354 22.6035 29.4171 20.8709C29.0651 20.4937 28.7085 20.1166 28.3543 19.7326C27.4514 18.768 26.5371 17.7875 25.6068 16.7977C25.404 16.5816 25.2911 16.2964 25.2911 16C25.2911 15.7037 25.404 15.4184 25.6068 15.2023C26.5371 14.2149 27.4537 13.232 28.3543 12.2675L28.3588 12.2629L29.4171 11.1292C31.0354 9.3966 31.6571 6.64689 30.3954 4.42746C30.0693 3.83497 29.6649 3.28911 29.1931 2.8046C28.7086 2.33284 28.1627 1.92845 27.5703 1.60232H27.5725Z" fill="white"/>
  </g>
  <defs>
    <clipPath id="clip0_223_269">
      <rect width="32" height="32" fill="white"/>
    </clipPath>
  </defs>
</svg>