<svg xmlns="http://www.w3.org/2000/svg" width="32" height="32" viewBox="0 0 32 32" fill="none">
  <path fill-rule="evenodd" clip-rule="evenodd" d="M20.4434 1.51293C20.3731 1.46276 20.2923 1.4292 20.2071 1.41476C20.1219 1.40033 20.0345 1.40541 19.9516 1.42961C19.8686 1.45381 19.7923 1.49651 19.7282 1.55449C19.6641 1.61247 19.614 1.68423 19.5817 1.76436L19.5726 1.78722L19.5497 1.84436L19.4629 2.06379C19.1062 2.96241 18.7626 3.86612 18.432 4.77465C16.9446 4.47537 15.4013 4.63869 14.0095 5.24264C12.6177 5.84659 11.4443 6.86221 10.6469 8.15293L9.456 10.0844C9.38889 10.1948 9.36122 10.3248 9.37749 10.453C9.39377 10.5812 9.45304 10.7002 9.54562 10.7903C9.63821 10.8805 9.75863 10.9367 9.88724 10.9496C10.0158 10.9625 10.145 10.9315 10.2537 10.8615L10.3451 10.8021C11.084 10.3221 11.9156 10.0029 12.7858 9.86509C13.656 9.72727 14.5455 9.77394 15.3966 10.0021L16.9051 10.4066C16.7262 11.4066 16.5639 12.4094 16.4183 13.4146L16.3817 13.6638L16.3726 13.7301L16.3703 13.7529C16.3585 13.8383 16.3662 13.9251 16.3928 14.0071C16.4194 14.089 16.4641 14.1639 16.5237 14.2261C16.5832 14.2883 16.6561 14.3362 16.7368 14.3663C16.8175 14.3964 16.904 14.4078 16.9897 14.3998C19.5954 14.1506 22.4 13.1564 24.6423 10.7198C25.184 10.1301 25.4034 9.3095 25.2297 8.5255C24.5074 5.29579 22.576 3.03293 20.4434 1.51293ZM14.3131 21.7232C14.3988 21.7127 14.4809 21.683 14.5534 21.6362C14.6258 21.5895 14.6868 21.5269 14.7317 21.4532C14.7765 21.3796 14.8041 21.2967 14.8124 21.2108C14.8207 21.125 14.8094 21.0384 14.7794 20.9575C13.8651 18.5049 12.1783 16.0524 9.24343 14.5186C8.89315 14.3356 8.50379 14.24 8.10857 14.24C7.71335 14.24 7.32399 14.3356 6.97371 14.5186C4.03886 16.0524 2.35429 18.5049 1.43771 20.9598C1.40775 21.0407 1.39648 21.1273 1.40475 21.2131C1.41303 21.299 1.44063 21.3819 1.48549 21.4555C1.53035 21.5292 1.5913 21.5918 1.66378 21.6385C1.73626 21.6853 1.81839 21.715 1.904 21.7255L1.92686 21.7301L1.98629 21.7369L2.22171 21.7644C3.18252 21.8767 4.14491 21.975 5.10857 22.0592C5.20522 23.573 5.76299 25.021 6.70689 26.2084C7.65079 27.3958 8.93559 28.2659 10.3886 28.7015L12.56 29.3552C12.6849 29.3942 12.8193 29.3891 12.9409 29.3409C13.0625 29.2927 13.1639 29.2042 13.2281 29.0902C13.2923 28.9762 13.3154 28.8437 13.2937 28.7147C13.2719 28.5857 13.2066 28.4681 13.1086 28.3815L13.024 28.3084C12.369 27.7186 11.8453 26.9977 11.4869 26.1924C11.1286 25.3871 10.9436 24.5155 10.944 23.6341V22.0729C11.9559 21.9876 12.9663 21.8855 13.9749 21.7666L14.2263 21.7369L14.2903 21.7301L14.3131 21.7255V21.7232ZM28.2651 14.2786C28.3935 14.2565 28.5256 14.2789 28.6395 14.3421C28.7534 14.4053 28.8423 14.5055 28.8914 14.6261L29.7486 16.7244C30.3235 18.1284 30.4547 19.6749 30.1245 21.1558C29.7943 22.6366 29.0186 23.9809 27.9017 25.0078C28.4428 25.8088 28.9716 26.6181 29.488 27.4352L29.6137 27.6364L29.648 27.6889L29.6571 27.7072C29.7027 27.7805 29.7311 27.8631 29.7403 27.949C29.7495 28.0348 29.7392 28.1215 29.7102 28.2028C29.6812 28.2841 29.6343 28.3578 29.5728 28.4184C29.5114 28.479 29.4371 28.525 29.3554 28.5529C26.8709 29.3826 23.9063 29.6135 20.8686 28.2946C20.5058 28.1376 20.1863 27.8951 19.9376 27.5878C19.6888 27.2805 19.5181 26.9176 19.44 26.5301C18.7886 23.2844 19.6343 20.4318 20.9669 18.1781C21.0107 18.1037 21.0708 18.0402 21.1427 17.9923C21.2147 17.9445 21.2965 17.9136 21.3821 17.9019C21.4676 17.8903 21.5547 17.8982 21.6368 17.925C21.7189 17.9519 21.7939 17.997 21.856 18.0569L21.872 18.0729L21.92 18.1186L22.1006 18.2969C22.8261 19.0076 23.5408 19.7292 24.2446 20.4615L25.4606 19.4786C26.1457 18.9247 26.7066 18.2328 27.1071 17.448C27.5076 16.6632 27.7386 15.803 27.7851 14.9232L27.7897 14.8112L28.2651 14.2786Z" fill="white"/>
</svg>