<svg xmlns="http://www.w3.org/2000/svg" width="47" height="47" viewBox="0 0 47 47" fill="none">
  <mask id="path-1-outside-1_171_5740" maskUnits="userSpaceOnUse" x="2.93872" y="2.177" width="40" height="41" fill="black">
    <rect fill="white" x="2.93872" y="2.177" width="40" height="41"/>
    <path fill-rule="evenodd" clip-rule="evenodd" d="M26.0434 6.03766C24.819 3.55678 21.2813 3.55678 20.0569 6.03766L17.0461 12.1384C16.5598 13.1235 15.62 13.8064 14.5328 13.9643L7.80029 14.9426C5.62348 15.2589 4.48634 17.4507 5.10748 19.3063C4.73715 20.4397 4.95826 21.7663 5.95038 22.7333L10.8221 27.4821C11.231 27.8806 11.5243 28.3705 11.6857 28.9011L10.632 35.0446C10.5375 35.5958 10.579 36.1204 10.7256 36.5962L10.632 37.1419C10.1643 39.8686 13.0264 41.948 15.4751 40.6606L21.4969 37.4948C22.4693 36.9836 23.631 36.9836 24.6034 37.4948L30.6252 40.6606C33.074 41.948 35.936 39.8686 35.4683 37.1419L35.3747 36.5962C35.5213 36.1204 35.5628 35.5958 35.4683 35.0446L34.4146 28.9011C34.576 28.3705 34.8693 27.8806 35.2782 27.4821L40.1499 22.7333C41.142 21.7663 41.3632 20.4397 40.9928 19.3063C41.614 17.4507 40.4768 15.2589 38.3 14.9426L31.5675 13.9643C30.4803 13.8064 29.5405 13.1235 29.0543 12.1384L26.0434 6.03766Z"/>
  </mask>
  <path fill-rule="evenodd" clip-rule="evenodd" d="M26.0434 6.03766C24.819 3.55678 21.2813 3.55678 20.0569 6.03766L17.0461 12.1384C16.5598 13.1235 15.62 13.8064 14.5328 13.9643L7.80029 14.9426C5.62348 15.2589 4.48634 17.4507 5.10748 19.3063C4.73715 20.4397 4.95826 21.7663 5.95038 22.7333L10.8221 27.4821C11.231 27.8806 11.5243 28.3705 11.6857 28.9011L10.632 35.0446C10.5375 35.5958 10.579 36.1204 10.7256 36.5962L10.632 37.1419C10.1643 39.8686 13.0264 41.948 15.4751 40.6606L21.4969 37.4948C22.4693 36.9836 23.631 36.9836 24.6034 37.4948L30.6252 40.6606C33.074 41.948 35.936 39.8686 35.4683 37.1419L35.3747 36.5962C35.5213 36.1204 35.5628 35.5958 35.4683 35.0446L34.4146 28.9011C34.576 28.3705 34.8693 27.8806 35.2782 27.4821L40.1499 22.7333C41.142 21.7663 41.3632 20.4397 40.9928 19.3063C41.614 17.4507 40.4768 15.2589 38.3 14.9426L31.5675 13.9643C30.4803 13.8064 29.5405 13.1235 29.0543 12.1384L26.0434 6.03766Z" fill="url(#paint0_linear_171_5740)"/>
  <path d="M20.0569 6.03766L21.5535 6.77629V6.77629L20.0569 6.03766ZM26.0434 6.03766L27.54 5.29904L27.54 5.29904L26.0434 6.03766ZM17.0461 12.1384L15.5494 11.3998L15.5494 11.3998L17.0461 12.1384ZM14.5328 13.9643L14.7728 15.616L14.5328 13.9643ZM7.80029 14.9426L7.5603 13.291H7.5603L7.80029 14.9426ZM5.10748 19.3063L6.6939 19.8246L6.86534 19.2999L6.69012 18.7765L5.10748 19.3063ZM5.95038 22.7333L4.78543 23.9284L4.78543 23.9284L5.95038 22.7333ZM10.8221 27.4821L11.987 26.2869H11.987L10.8221 27.4821ZM11.6857 28.9011L13.3306 29.1833L13.3974 28.7937L13.2824 28.4155L11.6857 28.9011ZM10.632 35.0446L8.98707 34.7625L10.632 35.0446ZM10.7256 36.5962L12.3705 36.8783L12.4379 36.4856L12.3205 36.1047L10.7256 36.5962ZM10.632 37.1419L8.98707 36.8597V36.8597L10.632 37.1419ZM15.4751 40.6606L16.2518 42.1379L15.4751 40.6606ZM21.4969 37.4948L20.7203 36.0175H20.7203L21.4969 37.4948ZM24.6034 37.4948L25.3801 36.0175H25.3801L24.6034 37.4948ZM30.6252 40.6606L29.8485 42.1379L30.6252 40.6606ZM35.4683 37.1419L33.8234 37.424L35.4683 37.1419ZM35.3747 36.5962L33.7798 36.1047L33.6624 36.4856L33.7298 36.8783L35.3747 36.5962ZM35.4683 35.0446L37.1132 34.7625V34.7625L35.4683 35.0446ZM34.4146 28.9011L32.8179 28.4155L32.7029 28.7937L32.7697 29.1833L34.4146 28.9011ZM35.2782 27.4821L36.4432 28.6772L36.4432 28.6772L35.2782 27.4821ZM40.1499 22.7333L38.985 21.5382V21.5382L40.1499 22.7333ZM40.9928 19.3063L39.4102 18.7765L39.235 19.2999L39.4064 19.8246L40.9928 19.3063ZM38.3 14.9426L38.54 13.291L38.3 14.9426ZM31.5675 13.9643L31.3275 15.616H31.3275L31.5675 13.9643ZM29.0543 12.1384L27.5576 12.877L29.0543 12.1384ZM21.5535 6.77629C22.1657 5.53584 23.9346 5.53584 24.5468 6.77629L27.54 5.29904C25.7034 1.57772 20.3969 1.57772 18.5603 5.29904L21.5535 6.77629ZM18.5427 12.877L21.5535 6.77629L18.5603 5.29904L15.5494 11.3998L18.5427 12.877ZM14.7728 15.616C16.4036 15.379 17.8134 14.3547 18.5427 12.877L15.5494 11.3998C15.3063 11.8923 14.8364 12.2338 14.2928 12.3127L14.7728 15.616ZM8.04028 16.5942L14.7728 15.616L14.2928 12.3127L7.5603 13.291L8.04028 16.5942ZM6.69012 18.7765C6.3737 17.8312 6.97134 16.7496 8.04028 16.5942L7.5603 13.291C4.27562 13.7683 2.59899 17.0702 3.52485 19.836L6.69012 18.7765ZM7.11533 21.5382C6.61756 21.053 6.50381 20.4064 6.6939 19.8246L3.52106 18.7879C2.97049 20.473 3.29897 22.4795 4.78543 23.9284L7.11533 21.5382ZM11.987 26.2869L7.11532 21.5382L4.78543 23.9284L9.65714 28.6772L11.987 26.2869ZM13.2824 28.4155C13.0405 27.6198 12.6004 26.8848 11.987 26.2869L9.65713 28.6772C9.86159 28.8765 10.0082 29.1212 10.0889 29.3867L13.2824 28.4155ZM12.2769 35.3268L13.3306 29.1833L10.0408 28.619L8.98707 34.7625L12.2769 35.3268ZM12.3205 36.1047C12.2508 35.8784 12.2269 35.6187 12.2769 35.3268L8.98707 34.7625C8.84808 35.5728 8.90717 36.3625 9.13065 37.0877L12.3205 36.1047ZM12.2769 37.424L12.3705 36.8783L9.08065 36.3141L8.98707 36.8597L12.2769 37.424ZM14.6985 39.1834C13.4741 39.8271 12.0431 38.7874 12.2769 37.424L8.98707 36.8597C8.28555 40.9499 12.5786 44.069 16.2518 42.1379L14.6985 39.1834ZM20.7203 36.0175L14.6985 39.1834L16.2518 42.1379L22.2735 38.972L20.7203 36.0175ZM25.3801 36.0175C23.9214 35.2507 22.1789 35.2507 20.7203 36.0175L22.2735 38.972C22.7597 38.7164 23.3406 38.7164 23.8268 38.972L25.3801 36.0175ZM31.4018 39.1834L25.3801 36.0175L23.8268 38.972L29.8485 42.1379L31.4018 39.1834ZM33.8234 37.424C34.0572 38.7874 32.6262 39.8271 31.4018 39.1834L29.8485 42.1379C33.5217 44.069 37.8148 40.9499 37.1132 36.8597L33.8234 37.424ZM33.7298 36.8783L33.8234 37.424L37.1132 36.8597L37.0197 36.3141L33.7298 36.8783ZM33.8234 35.3268C33.8734 35.6187 33.8495 35.8784 33.7798 36.1047L36.9697 37.0877C37.1931 36.3625 37.2522 35.5728 37.1132 34.7625L33.8234 35.3268ZM32.7697 29.1833L33.8234 35.3268L37.1132 34.7625L36.0596 28.619L32.7697 29.1833ZM34.1133 26.2869C33.5 26.8848 33.0599 27.6198 32.8179 28.4155L36.0114 29.3867C36.0921 29.1212 36.2387 28.8765 36.4432 28.6772L34.1133 26.2869ZM38.985 21.5382L34.1133 26.2869L36.4432 28.6772L41.3149 23.9284L38.985 21.5382ZM39.4064 19.8246C39.5965 20.4064 39.4828 21.053 38.985 21.5382L41.3149 23.9284C42.8013 22.4795 43.1298 20.473 42.5792 18.7879L39.4064 19.8246ZM38.06 16.5942C39.129 16.7496 39.7266 17.8312 39.4102 18.7765L42.5755 19.836C43.5013 17.0702 41.8247 13.7683 38.54 13.291L38.06 16.5942ZM31.3275 15.616L38.06 16.5942L38.54 13.291L31.8075 12.3127L31.3275 15.616ZM27.5576 12.877C28.287 14.3547 29.6967 15.379 31.3275 15.616L31.8075 12.3127C31.2639 12.2338 30.794 11.8923 30.5509 11.3998L27.5576 12.877ZM24.5468 6.77628L27.5576 12.877L30.5509 11.3998L27.54 5.29904L24.5468 6.77628Z" fill="white" mask="url(#path-1-outside-1_171_5740)"/>
  <g filter="url(#filter0_d_171_5740)">
    <path d="M20.2016 6.06493C21.426 3.58404 24.9637 3.58404 26.188 6.06493L29.1989 12.1656C29.6851 13.1508 30.625 13.8336 31.7122 13.9916L38.4447 14.9699C41.1825 15.3677 42.2757 18.7322 40.2946 20.6633L35.4229 25.4121C34.6362 26.1789 34.2772 27.2838 34.4629 28.3666L35.613 35.0719C36.0807 37.7987 33.2186 39.878 30.7698 38.5906L24.7481 35.4248C23.7757 34.9136 22.614 34.9136 21.6416 35.4248L15.6198 38.5906C13.171 39.878 10.309 37.7987 10.7767 35.0719L11.9267 28.3666C12.1124 27.2838 11.7534 26.1789 10.9667 25.4121L6.09504 20.6633C4.11394 18.7322 5.20714 15.3677 7.94495 14.9699L14.6775 13.9916C15.7647 13.8336 16.7045 13.1508 17.1907 12.1656L20.2016 6.06493Z" fill="url(#paint1_linear_171_5740)"/>
  </g>
  <defs>
    <filter id="filter0_d_171_5740" x="5.08337" y="4.20435" width="36.2229" height="37.2805" filterUnits="userSpaceOnUse" color-interpolation-filters="sRGB">
      <feFlood flood-opacity="0" result="BackgroundImageFix"/>
      <feColorMatrix in="SourceAlpha" type="matrix" values="0 0 0 0 0 0 0 0 0 0 0 0 0 0 0 0 0 0 127 0" result="hardAlpha"/>
      <feOffset dy="2.50343"/>
      <feComposite in2="hardAlpha" operator="out"/>
      <feColorMatrix type="matrix" values="0 0 0 0 1 0 0 0 0 0.392 0 0 0 0 0.2 0 0 0 1 0"/>
      <feBlend mode="normal" in2="BackgroundImageFix" result="effect1_dropShadow_171_5740"/>
      <feBlend mode="normal" in="SourceGraphic" in2="effect1_dropShadow_171_5740" result="shape"/>
    </filter>
    <linearGradient id="paint0_linear_171_5740" x1="23.0501" y1="0.759159" x2="23.0501" y2="45.5325" gradientUnits="userSpaceOnUse">
      <stop offset="0.25" stop-color="#FFEE37"/>
      <stop offset="1" stop-color="#F78A3B"/>
    </linearGradient>
    <linearGradient id="paint1_linear_171_5740" x1="23.1948" y1="0" x2="23.1948" y2="46.1443" gradientUnits="userSpaceOnUse">
      <stop offset="0.25" stop-color="#FFEE37"/>
      <stop offset="1" stop-color="#F78A3B"/>
    </linearGradient>
  </defs>
</svg>