<svg xmlns="http://www.w3.org/2000/svg" width="24" height="24" fill="none"><path fill="#fff" stroke="#fff" stroke-width="2" d="m1.46 19.283.009-.008.008-.008 7.908-7.908 2.12 2.121-7.912 7.913-.002.002a1.48 1.48 0 0 1-1.07.435A1.56 1.56 0 0 1 1 20.325a1.49 1.49 0 0 1 .123-.559l-.907-.394.907.394a1.49 1.49 0 0 1 .337-.483ZM22.813 9.947l.017.018.019.016a.46.46 0 0 1 .15.314.47.47 0 0 1-.152.316l-.018.015-.016.017-3.53 3.53a.5.5 0 0 1-.706 0l-1.058-1.058a2 2 0 0 0 0-2.82l-.708.704.709-.703a2.002 2.002 0 0 0-2.84 0l-.726.732-2.115-2.122.629-.63a1.43 1.43 0 0 0 .461-.997l.001-.02V7.24c0-.427-.192-.795-.36-1.05a5.32 5.32 0 0 0-.716-.84 6 6 0 0 0-4.45-1.75 6.74 6.74 0 0 1 8.706.384l.02.019.022.017c.243.201.762.718 2.22 2.176a.5.5 0 0 1 .11.532 2 2 0 0 0 3.273 2.161zM11.132 8.902l.012-.005-.012.005-.007.003z"/></svg>