<svg width="24" height="24" viewBox="0 0 24 24" fill="none" xmlns="http://www.w3.org/2000/svg">
<path d="M11.667 20.7312C11.9137 20.896 12.2037 20.984 12.5004 20.984C12.8982 20.984 13.2798 20.826 13.5611 20.5447C13.8424 20.2634 14.0004 19.8818 14.0004 19.484C14.0004 19.1873 13.9124 18.8973 13.7476 18.6507C13.5828 18.404 13.3485 18.2117 13.0744 18.0982C12.8003 17.9847 12.4987 17.955 12.2078 18.0128C11.9168 18.0707 11.6495 18.2136 11.4397 18.4234C11.23 18.6331 11.0871 18.9004 11.0292 19.1914C10.9713 19.4823 11.001 19.7839 11.1146 20.058C11.2281 20.3321 11.4204 20.5664 11.667 20.7312Z" fill="white"/>
<path d="M14.0004 15.484V13.784C14.9604 13.5067 15.8267 12.9732 16.5063 12.2406C17.1859 11.5081 17.6531 10.6042 17.8577 9.62618C18.0623 8.64812 17.9966 7.63279 17.6676 6.68926C17.3386 5.74574 16.7588 4.90966 15.9905 4.27083C15.2221 3.632 14.2943 3.21456 13.3065 3.06334C12.3188 2.91213 11.3085 3.03286 10.3843 3.41256C9.45998 3.79226 8.65661 4.41659 8.06042 5.21848C7.46424 6.02038 7.09778 6.96954 7.0004 7.96401C6.99771 8.03134 7.00864 8.09851 7.03256 8.1615C7.05648 8.22449 7.09288 8.282 7.13958 8.33057C7.18628 8.37914 7.24232 8.41777 7.30432 8.44413C7.36633 8.4705 7.43302 8.48407 7.5004 8.48401H9.5004C9.62429 8.49575 9.74801 8.45991 9.84644 8.38377C9.94487 8.30762 10.0106 8.19688 10.0304 8.07401C10.0891 7.72819 10.2197 7.39851 10.4136 7.10624C10.6076 6.81398 10.8607 6.56561 11.1565 6.37717C11.4524 6.18872 11.7845 6.06438 12.1313 6.01217C12.4782 5.95995 12.8322 5.98102 13.1704 6.07401C13.5891 6.18291 13.971 6.4016 14.2769 6.70748C14.5828 7.01337 14.8015 7.39536 14.9104 7.81401C15.0137 8.18551 15.0297 8.57587 14.9572 8.95458C14.8846 9.33329 14.7254 9.69008 14.492 9.99704C14.2586 10.304 13.9574 10.5528 13.6119 10.724C13.2664 10.8953 12.886 10.9842 12.5004 10.984H12.0004C11.7352 10.984 11.4808 11.0894 11.2933 11.2769C11.1058 11.4644 11.0004 11.7188 11.0004 11.984V15.484C11.0004 15.6166 11.0531 15.7438 11.1468 15.8376C11.2406 15.9313 11.3678 15.984 11.5004 15.984H13.5004C13.633 15.984 13.7602 15.9313 13.854 15.8376C13.9477 15.7438 14.0004 15.6166 14.0004 15.484Z" fill="white"/>
</svg>
