<svg xmlns="http://www.w3.org/2000/svg" fill="none" viewBox="0 0 1187 509"><path fill="#fff" fill-rule="evenodd" d="M627 37.5c-11.874 0-21.5 9.626-21.5 21.5v391c0 32.309-26.191 58.5-58.5 58.5H251.5c-32.309 0-58.5-26.191-58.5-58.5V247c0-11.874-9.626-21.5-21.5-21.5h-153C8.283 225.5 0 217.217 0 207s8.283-18.5 18.5-18.5h153c32.309 0 58.5 26.191 58.5 58.5v203c0 11.874 9.626 21.5 21.5 21.5H547c11.874 0 21.5-9.626 21.5-21.5V59C568.5 26.691 594.691.5 627 .5h61c32.309 0 58.5 26.191 58.5 58.5v125.5c0 11.874 9.626 21.5 21.5 21.5h83c32.309 0 58.5 26.191 58.5 58.5v8.747c0 15.722 16.324 26.128 30.577 19.49l220.113-102.508c9.26-4.313 20.27-.301 24.58 8.961 4.31 9.262.3 20.267-8.96 24.581L955.697 326.278c-38.781 18.06-83.197-10.251-83.197-53.031V264.5c0-11.874-9.626-21.5-21.5-21.5h-83c-32.309 0-58.5-26.191-58.5-58.5V59c0-11.874-9.626-21.5-21.5-21.5z" clip-rule="evenodd"/><path fill="#63BCC0" fill-rule="evenodd" d="M627 27.5c-16.845 0-30.5 13.655-30.5 30.5v394c0 27.338-22.162 49.5-49.5 49.5H251.5c-27.338 0-49.5-22.162-49.5-49.5V249c0-16.845-13.655-30.5-30.5-30.5h-153A9.5 9.5 0 0 1 9 209a9.5 9.5 0 0 1 9.5-9.5h153c27.338 0 49.5 22.162 49.5 49.5v203c0 16.845 13.655 30.5 30.5 30.5H547c16.845 0 30.5-13.655 30.5-30.5V58c0-27.338 22.162-49.5 49.5-49.5h61c27.338 0 49.5 22.162 49.5 49.5v127.5c0 16.845 13.655 30.5 30.5 30.5h83c27.338 0 49.5 22.162 49.5 49.5v8.952c0 22.265 23.083 37.026 43.294 27.687l220.226-101.763c4.76-2.201 10.4-.124 12.6 4.639 2.2 4.763.13 10.408-4.64 12.609L951.764 319.387c-32.802 15.157-70.264-8.8-70.264-44.935V265.5c0-16.845-13.655-30.5-30.5-30.5h-83c-27.338 0-49.5-22.162-49.5-49.5V58c0-16.845-13.655-30.5-30.5-30.5z" clip-rule="evenodd"/></svg>